<svg version="1.1" xmlns="http://www.w3.org/2000/svg" xmlns:xlink="http://www.w3.org/1999/xlink" width="645.76513671875" height="458"><defs/><g><g transform="translate(-174,-102) scale(1,1)"><rect fill="#C0C0C0" stroke="none" x="191" y="119" width="145.2080078125" height="107" opacity="0.2"/></g><g transform="translate(-174,-102) scale(1,1)"><rect fill="#ffffff" stroke="none" x="184" y="112" width="145.2080078125" height="107"/></g><g transform="translate(-174,-102) scale(1,1)"><path fill="none" stroke="#000000" d="M 184 112 L 329.2080078125 112 L 329.2080078125 219 L 184 219 L 184 112 Z Z" stroke-miterlimit="10"/></g><g transform="translate(-174,-102) scale(1,1)"><path fill="none" stroke="#000000" d="M 184 137 L 329.2080078125 137" stroke-miterlimit="10"/></g><g transform="translate(-174,-102) scale(1,1)"><g><path fill="none" stroke="none"/><text fill="#000000" stroke="none" font-family="Arial" font-size="13px" font-style="normal" font-weight="bold" text-decoration="none" x="246.1240234375" y="131.5">Tag</text></g></g><g transform="translate(-174,-102) scale(1,1)"><g><path fill="none" stroke="none"/><text fill="#000000" stroke="none" font-family="Arial" font-size="13px" font-style="normal" font-weight="normal" text-decoration="none" x="189" y="154.5">+id: number</text></g></g><g transform="translate(-174,-102) scale(1,1)"><g><path fill="none" stroke="none"/><text fill="#000000" stroke="none" font-family="Arial" font-size="13px" font-style="normal" font-weight="normal" text-decoration="none" x="189" y="169.5">+name: string</text></g></g><g transform="translate(-174,-102) scale(1,1)"><g><path fill="none" stroke="none"/><text fill="#000000" stroke="none" font-family="Arial" font-size="13px" font-style="normal" font-weight="normal" text-decoration="none" x="189" y="184.5">+post_count: number</text></g></g><g transform="translate(-174,-102) scale(1,1)"><g><path fill="none" stroke="none"/><text fill="#000000" stroke="none" font-family="Arial" font-size="13px" font-style="normal" font-weight="normal" text-decoration="none" x="189" y="199.5">+category: number</text></g></g><g transform="translate(-174,-102) scale(1,1)"><g><path fill="none" stroke="none"/><text fill="#000000" stroke="none" font-family="Arial" font-size="13px" font-style="normal" font-weight="normal" text-decoration="none" x="189" y="214.5">+created_at: timestamp</text></g></g><g transform="translate(-174,-102) scale(1,1)"><rect fill="#C0C0C0" stroke="none" x="639" y="119" width="177.76513671875" height="122" opacity="0.2"/></g><g transform="translate(-174,-102) scale(1,1)"><rect fill="#ffffff" stroke="none" x="632" y="112" width="177.76513671875" height="122"/></g><g transform="translate(-174,-102) scale(1,1)"><path fill="none" stroke="#000000" d="M 632 112 L 809.76513671875 112 L 809.76513671875 234 L 632 234 L 632 112 Z Z" stroke-miterlimit="10"/></g><g transform="translate(-174,-102) scale(1,1)"><path fill="none" stroke="#000000" d="M 632 137 L 809.76513671875 137" stroke-miterlimit="10"/></g><g transform="translate(-174,-102) scale(1,1)"><g><path fill="none" stroke="none"/><text fill="#000000" stroke="none" font-family="Arial" font-size="13px" font-style="normal" font-weight="bold" text-decoration="none" x="707.158935546875" y="131.5">User</text></g></g><g transform="translate(-174,-102) scale(1,1)"><g><path fill="none" stroke="none"/><text fill="#000000" stroke="none" font-family="Arial" font-size="13px" font-style="normal" font-weight="normal" text-decoration="none" x="637" y="154.5">+id: number</text></g></g><g transform="translate(-174,-102) scale(1,1)"><g><path fill="none" stroke="none"/><text fill="#000000" stroke="none" font-family="Arial" font-size="13px" font-style="normal" font-weight="normal" text-decoration="none" x="637" y="169.5">+created_at: timestamp</text></g></g><g transform="translate(-174,-102) scale(1,1)"><g><path fill="none" stroke="none"/><text fill="#000000" stroke="none" font-family="Arial" font-size="13px" font-style="normal" font-weight="normal" text-decoration="none" x="637" y="184.5">+name: string</text></g></g><g transform="translate(-174,-102) scale(1,1)"><g><path fill="none" stroke="none"/><text fill="#000000" stroke="none" font-family="Arial" font-size="13px" font-style="normal" font-weight="normal" text-decoration="none" x="637" y="199.5">+inviter_id: number</text></g></g><g transform="translate(-174,-102) scale(1,1)"><g><path fill="none" stroke="none"/><text fill="#000000" stroke="none" font-family="Arial" font-size="13px" font-style="normal" font-weight="normal" text-decoration="none" x="637" y="214.5">+level: string</text></g></g><g transform="translate(-174,-102) scale(1,1)"><g><path fill="none" stroke="none"/><text fill="#000000" stroke="none" font-family="Arial" font-size="13px" font-style="normal" font-weight="normal" text-decoration="none" x="637" y="229.5">+post_upload_count: number</text></g></g><g transform="translate(-174,-102) scale(1,1)"><rect fill="#C0C0C0" stroke="none" x="391" y="375" width="145.95068359375" height="182" opacity="0.2"/></g><g transform="translate(-174,-102) scale(1,1)"><rect fill="#ffffff" stroke="none" x="384" y="368" width="145.95068359375" height="182"/></g><g transform="translate(-174,-102) scale(1,1)"><path fill="none" stroke="#000000" d="M 384 368 L 529.95068359375 368 L 529.95068359375 550 L 384 550 L 384 368 Z Z" stroke-miterlimit="10"/></g><g transform="translate(-174,-102) scale(1,1)"><path fill="none" stroke="#000000" d="M 384 393 L 529.95068359375 393" stroke-miterlimit="10"/></g><g transform="translate(-174,-102) scale(1,1)"><g><path fill="none" stroke="none"/><text fill="#000000" stroke="none" font-family="Arial" font-size="13px" font-style="normal" font-weight="bold" text-decoration="none" x="443.968994140625" y="387.5">Post</text></g></g><g transform="translate(-174,-102) scale(1,1)"><g><path fill="none" stroke="none"/><text fill="#000000" stroke="none" font-family="Arial" font-size="13px" font-style="normal" font-weight="normal" text-decoration="none" x="389" y="410.5">+id: number</text></g></g><g transform="translate(-174,-102) scale(1,1)"><g><path fill="none" stroke="none"/><text fill="#000000" stroke="none" font-family="Arial" font-size="13px" font-style="normal" font-weight="normal" text-decoration="none" x="389" y="425.5">+created_at: timestamp</text></g></g><g transform="translate(-174,-102) scale(1,1)"><g><path fill="none" stroke="none"/><text fill="#000000" stroke="none" font-family="Arial" font-size="13px" font-style="normal" font-weight="normal" text-decoration="none" x="389" y="440.5">+rating: string</text></g></g><g transform="translate(-174,-102) scale(1,1)"><g><path fill="none" stroke="none"/><text fill="#000000" stroke="none" font-family="Arial" font-size="13px" font-style="normal" font-weight="normal" text-decoration="none" x="389" y="455.5">+image_width: number</text></g></g><g transform="translate(-174,-102) scale(1,1)"><g><path fill="none" stroke="none"/><text fill="#000000" stroke="none" font-family="Arial" font-size="13px" font-style="normal" font-weight="normal" text-decoration="none" x="389" y="470.5">+image_height: number</text></g></g><g transform="translate(-174,-102) scale(1,1)"><g><path fill="none" stroke="none"/><text fill="#000000" stroke="none" font-family="Arial" font-size="13px" font-style="normal" font-weight="normal" text-decoration="none" x="389" y="485.5">+file_extension: string</text></g></g><g transform="translate(-174,-102) scale(1,1)"><g><path fill="none" stroke="none"/><text fill="#000000" stroke="none" font-family="Arial" font-size="13px" font-style="normal" font-weight="normal" text-decoration="none" x="389" y="500.5">+approver_id: number</text></g></g><g transform="translate(-174,-102) scale(1,1)"><g><path fill="none" stroke="none"/><text fill="#000000" stroke="none" font-family="Arial" font-size="13px" font-style="normal" font-weight="normal" text-decoration="none" x="389" y="515.5">+file_size: number</text></g></g><g transform="translate(-174,-102) scale(1,1)"><g><path fill="none" stroke="none"/><text fill="#000000" stroke="none" font-family="Arial" font-size="13px" font-style="normal" font-weight="normal" text-decoration="none" x="389" y="530.5">+up_score: number</text></g></g><g transform="translate(-174,-102) scale(1,1)"><g><path fill="none" stroke="none"/><text fill="#000000" stroke="none" font-family="Arial" font-size="13px" font-style="normal" font-weight="normal" text-decoration="none" x="389" y="545.5">+down_score: number</text></g></g><g transform="translate(-174,-102) scale(1,1)"><path fill="none" stroke="#000000" d="M 329 184 L 416 184 L 416 368" stroke-miterlimit="10"/></g><g transform="translate(-174,-102) scale(1,1)"><path fill="#000000" stroke="none" d="M 411.790482243984 357.83732514237585 L 416 368 L 420.209517756016 357.83732514237585 L 416 346"/></g><g transform="translate(-174,-102) scale(1,1)"><path fill="none" stroke="#000000" d="M 411.790482243984 357.83732514237585 L 416 368 L 420.209517756016 357.83732514237585 L 416 346 L 411.790482243984 357.83732514237585" stroke-miterlimit="10"/></g><g transform="translate(-174,-102) scale(1,1)"><g><path fill="none" stroke="none"/><text fill="#000000" stroke="none" font-family="Arial" font-size="13px" font-style="normal" font-weight="normal" text-decoration="none" x="331.5" y="198.5">+tagged_with</text></g></g><g transform="translate(-174,-102) scale(1,1)"><path fill="none" stroke="#000000" d="M 632 184 L 496 184 L 496 368" stroke-miterlimit="10"/></g><g transform="translate(-174,-102) scale(1,1)"><path fill="#000000" stroke="none" d="M 491.790482243984 357.83732514237585 L 496 368 L 500.209517756016 357.83732514237585 L 496 346"/></g><g transform="translate(-174,-102) scale(1,1)"><path fill="none" stroke="#000000" d="M 491.790482243984 357.83732514237585 L 496 368 L 500.209517756016 357.83732514237585 L 496 346 L 491.790482243984 357.83732514237585" stroke-miterlimit="10"/></g><g transform="translate(-174,-102) scale(1,1)"><g><path fill="none" stroke="none"/><text fill="#000000" stroke="none" font-family="Arial" font-size="13px" font-style="normal" font-weight="normal" text-decoration="none" x="510.5" y="204.5">+favorites</text></g></g><g transform="translate(-174,-102) scale(1,1)"><g><path fill="none" stroke="none"/><text fill="#000000" stroke="none" font-family="Arial" font-size="13px" font-style="normal" font-weight="normal" text-decoration="none" x="607.812255859375" y="177.5">*</text></g></g><g transform="translate(-174,-102) scale(1,1)"><path fill="none" stroke="#000000" d="M 530 416 L 576 416 L 576 520 L 530 520" stroke-miterlimit="10"/></g><g transform="translate(-174,-102) scale(1,1)"><path fill="#000000" stroke="none" d="M 540.1626748576241 515.790482243984 L 530 520 L 540.1626748576241 524.209517756016 L 552 520"/></g><g transform="translate(-174,-102) scale(1,1)"><path fill="none" stroke="#000000" d="M 540.1626748576241 515.790482243984 L 530 520 L 540.1626748576241 524.209517756016 L 552 520 L 540.1626748576241 515.790482243984" stroke-miterlimit="10"/></g><g transform="translate(-174,-102) scale(1,1)"><g><path fill="none" stroke="none"/><text fill="#000000" stroke="none" font-family="Arial" font-size="13px" font-style="normal" font-weight="normal" text-decoration="none" x="548.220458984375" y="434.5">*</text></g></g><g transform="translate(-174,-102) scale(1,1)"><g><path fill="none" stroke="none"/><text fill="#000000" stroke="none" font-family="Arial" font-size="13px" font-style="normal" font-weight="normal" text-decoration="none" x="528.5" y="540.5">+children</text></g></g><g transform="translate(-174,-102) scale(1,1)"><path fill="none" stroke="#000000" d="M 530 378 L 679 378 L 679 234" stroke-miterlimit="10"/></g><g transform="translate(-174,-102) scale(1,1)"><path fill="none" stroke="#000000" d="M 683.209517756016 244.16267485762415 L 679 234 L 674.790482243984 244.16267485762415" stroke-miterlimit="10"/></g><g transform="translate(-174,-102) scale(1,1)"><g><path fill="none" stroke="none"/><text fill="#000000" stroke="none" font-family="Arial" font-size="13px" font-style="normal" font-weight="normal" text-decoration="none" x="693.5" y="371.5">+uploader</text></g></g><g transform="translate(-174,-102) scale(1,1)"><g><path fill="none" stroke="none"/><text fill="#000000" stroke="none" font-family="Arial" font-size="13px" font-style="normal" font-weight="normal" text-decoration="none" x="548.58544921875" y="396.5">*</text></g></g><g transform="translate(-174,-102) scale(1,1)"><g><path fill="none" stroke="none"/><text fill="#000000" stroke="none" font-family="Arial" font-size="13px" font-style="normal" font-weight="normal" text-decoration="none" x="687.5" y="261.5">1</text></g></g><g transform="translate(-174,-102) scale(1,1)"><path fill="none" stroke="#000000" d="M 384 416 L 336 416 L 336 520 L 384 520" stroke-miterlimit="10"/></g><g transform="translate(-174,-102) scale(1,1)"><path fill="none" stroke="#000000" d="M 373.83732514237585 524.209517756016 L 384 520 L 373.83732514237585 515.790482243984" stroke-miterlimit="10"/></g><g transform="translate(-174,-102) scale(1,1)"><g><path fill="none" stroke="none"/><text fill="#000000" stroke="none" font-family="Arial" font-size="13px" font-style="normal" font-weight="normal" text-decoration="none" x="294.5" y="540.5">+parent</text></g></g><g transform="translate(-174,-102) scale(1,1)"><g><path fill="none" stroke="none"/><text fill="#000000" stroke="none" font-family="Arial" font-size="13px" font-style="normal" font-weight="normal" text-decoration="none" x="351.5" y="538.5">0..1</text></g></g></g></svg>